<svg width="92" height="94" viewBox="0 0 92 94" fill="none" xmlns="http://www.w3.org/2000/svg">
<path d="M26.7586 13.6409C27.2668 14.3258 27.5211 15.029 27.5213 15.7503C27.5176 16.4665 27.3077 17.1614 26.8914 17.835C26.4713 18.5034 25.8875 19.115 25.1398 19.6698C24.6745 20.0151 24.2336 20.3058 23.817 20.542C23.4095 20.7795 23.0244 20.9761 22.6616 21.1318C22.3041 21.2836 21.9649 21.4055 21.6441 21.4976L21.0447 20.6899C21.5689 20.5441 22.1423 20.3335 22.7648 20.058C23.3886 19.7735 24.0169 19.3965 24.6495 18.9271C25.2455 18.4848 25.7096 18.0067 26.0416 17.4928C26.3789 16.975 26.5509 16.442 26.5576 15.8938C26.5643 15.3457 26.3698 14.805 25.9741 14.2717C25.625 13.8011 25.2274 13.5003 24.7815 13.3691C24.3369 13.2288 23.8128 13.2163 23.2094 13.3317C22.602 13.4419 21.8777 13.6348 21.0365 13.9104C20.4457 14.0975 19.8909 14.2457 19.3721 14.355C18.8546 14.4553 18.3727 14.4886 17.9262 14.4551C17.4759 14.4163 17.0534 14.2839 16.6587 14.0579C16.2654 13.8229 15.898 13.4753 15.5566 13.0152C15.0872 12.3826 14.8529 11.7336 14.8537 11.0682C14.8558 10.3937 15.0499 9.743 15.436 9.11607C15.8233 8.48002 16.3621 7.90595 17.0522 7.39385C17.6012 6.98651 18.1602 6.65278 18.7292 6.39267C19.2996 6.12345 19.8905 5.92009 20.5019 5.7826L20.7375 6.69007C20.13 6.83279 19.5613 7.0278 19.0314 7.27509C18.5014 7.52237 18.0117 7.81284 17.562 8.14648C17.0235 8.54607 16.6027 8.98402 16.2994 9.46034C15.9976 9.92755 15.8421 10.4118 15.833 10.913C15.8239 11.4143 15.9998 11.9081 16.3606 12.3943C16.733 12.8962 17.1461 13.218 17.5998 13.3596C18.0587 13.4974 18.573 13.5131 19.1425 13.4066C19.7173 13.2963 20.3641 13.1244 21.0827 12.8911C21.9331 12.6168 22.699 12.4255 23.3806 12.317C24.0583 12.2032 24.674 12.2409 25.2277 12.4299C25.7867 12.6151 26.297 13.0188 26.7586 13.6409ZM35.4786 14.1368C34.4869 14.4959 33.574 14.5945 32.7399 14.4326C31.9097 14.2624 31.1816 13.8579 30.5556 13.2191C29.9335 12.5719 29.4318 11.7219 29.0506 10.669C28.6538 9.57328 28.5136 8.56466 28.6299 7.64315C28.7441 6.71553 29.087 5.9128 29.6586 5.23498C30.2302 4.55715 31.0026 4.04201 31.9759 3.68956C32.4534 3.51666 32.9127 3.39881 33.3539 3.33599C33.7951 3.27317 34.2086 3.25843 34.5946 3.29177L34.6426 4.19875C34.2444 4.16985 33.838 4.18544 33.4236 4.24551C33.0091 4.30558 32.6244 4.3999 32.2693 4.52846C31.449 4.8255 30.8166 5.25878 30.372 5.82831C29.9312 6.38951 29.6775 7.05608 29.6109 7.82802C29.5481 8.59163 29.6785 9.4203 30.0022 10.314C30.3059 11.1527 30.7037 11.8499 31.1958 12.4056C31.6856 12.9553 32.2645 13.3204 32.9322 13.501C33.5978 13.6754 34.3468 13.6119 35.1794 13.3104C35.663 13.1353 36.1043 12.9201 36.5035 12.6647C36.9088 12.4072 37.2643 12.1365 37.57 11.8527L37.8759 12.6975C37.6047 12.9619 37.2714 13.2175 36.8762 13.4645C36.4893 13.7154 36.0234 13.9395 35.4786 14.1368ZM43.5685 1.43727C43.8471 1.40981 44.1111 1.40014 44.3605 1.40826C44.6099 1.41639 44.8443 1.43907 45.0639 1.4763L44.9975 2.39545C44.7779 2.35822 44.5567 2.3375 44.3339 2.3333C44.1104 2.32262 43.8723 2.32973 43.6197 2.35464C43.1208 2.40382 42.683 2.54183 42.3063 2.76868C41.9361 2.99489 41.6321 3.29635 41.3945 3.67304C41.1569 4.04973 40.9911 4.4913 40.8971 4.99776C40.8031 5.50421 40.7861 6.06195 40.8461 6.67098L41.4209 12.5021L40.4296 12.5998L39.3883 2.03578L40.2338 1.95243L40.5274 3.93515L40.5857 3.9294C40.7074 3.50526 40.8981 3.11684 41.1577 2.76415C41.4232 2.40434 41.7569 2.10649 42.1589 1.87061C42.5609 1.63472 43.0307 1.49028 43.5685 1.43727ZM57.7518 8.64496C57.6064 9.45229 57.3744 10.1713 57.0558 10.8019C56.7383 11.426 56.3409 11.9432 55.8635 12.3534C55.3861 12.7636 54.8322 13.0475 54.2019 13.2052C53.5779 13.3641 52.8815 13.3743 52.1126 13.2358C51.3822 13.1043 50.7549 12.859 50.2308 12.5C49.7078 12.1346 49.291 11.6759 48.9803 11.1238C48.676 10.5729 48.4807 9.94897 48.3945 9.25209C48.3095 8.54881 48.3402 7.79029 48.4868 6.97656C48.6887 5.85527 49.0481 4.92443 49.5651 4.18402C50.0897 3.43836 50.7398 2.91376 51.5156 2.61024C52.2988 2.30145 53.1806 2.23533 54.1609 2.41186C55.1733 2.59416 55.9743 2.97655 56.564 3.55903C57.1613 4.13626 57.5565 4.86232 57.7495 5.7372C57.9426 6.61209 57.9433 7.58134 57.7518 8.64496ZM49.4863 7.15655C49.3213 8.07281 49.3084 8.89738 49.4477 9.63027C49.5869 10.3632 49.8878 10.9697 50.3504 11.4499C50.8194 11.9313 51.464 12.2458 52.2841 12.3935C53.1235 12.5446 53.8469 12.4765 54.4543 12.1889C55.0618 11.9014 55.556 11.4347 55.9369 10.7889C56.3178 10.143 56.5896 9.36841 56.7522 8.46497C56.9103 7.58716 56.9293 6.78354 56.8093 6.05411C56.6893 5.32468 56.4018 4.71723 55.9468 4.23177C55.4929 3.7399 54.8431 3.41782 53.9973 3.26551C52.7863 3.04744 51.7942 3.28554 51.0209 3.97979C50.254 4.6752 49.7424 5.73412 49.4863 7.15655ZM60.4375 15.1921L59.5255 14.7916L65.6357 0.87885L66.5477 1.27939L60.4375 15.1921ZM64.4206 17.3263L63.5671 16.8127L71.4014 3.79268L72.2549 4.30624L64.4206 17.3263ZM73.1857 26.0943C72.3109 24.9356 72.0077 23.7777 72.2761 22.6206C72.5537 21.4648 73.3913 20.3592 74.7889 19.304C76.2542 18.1977 77.6125 17.6738 78.864 17.7323C80.1155 17.7908 81.1728 18.3916 82.0358 19.5347C82.4046 20.0231 82.6489 20.5034 82.7689 20.9757C82.8929 21.4532 82.9171 21.9121 82.8417 22.3524C82.7754 22.7941 82.6296 23.206 82.4042 23.5882L82.4513 23.6506C82.711 23.4219 82.9954 23.1827 83.3045 22.933C83.6136 22.6833 83.9006 22.4584 84.1656 22.2584L87.6105 19.6575L88.2048 20.4446L76.0777 29.6007L75.5952 28.9616L77.0697 27.6893L77.0344 27.6425C76.6167 27.7376 76.1838 27.7585 75.7357 27.7053C75.2916 27.6572 74.8523 27.5076 74.4179 27.2564C73.9887 27.0012 73.5779 26.6139 73.1857 26.0943ZM73.9362 25.6622C74.6894 26.6598 75.5341 27.1356 76.4701 27.0896C77.4114 27.0398 78.4587 26.5794 79.6122 25.7085L79.7369 25.6143C80.9319 24.7121 81.6875 23.8112 82.0036 22.9118C82.325 22.0084 82.1267 21.0813 81.4088 20.1304C80.6988 19.19 79.8281 18.7175 78.7968 18.713C77.7695 18.7137 76.6323 19.1848 75.3853 20.1263C74.2111 21.0129 73.4946 21.9168 73.2358 22.8383C72.9809 23.7649 73.2144 24.7062 73.9362 25.6622ZM85.3841 39.418C84.6024 39.6669 83.8584 39.7979 83.152 39.8109C82.4518 39.8221 81.8088 39.7125 81.2231 39.4822C80.6373 39.2519 80.1274 38.895 79.6934 38.4114C79.2613 37.9341 78.9267 37.3232 78.6897 36.5787C78.4645 35.8715 78.3882 35.2023 78.4605 34.5712C78.5391 33.9381 78.7498 33.3552 79.0926 32.8225C79.4374 32.2959 79.8977 31.8317 80.4735 31.4297C81.0554 31.0258 81.7404 30.6984 82.5282 30.4476C83.6138 30.102 84.6048 29.9846 85.501 30.0956C86.4054 30.2108 87.173 30.5403 87.8039 31.0842C88.443 31.6323 88.9137 32.3809 89.2158 33.33C89.5279 34.3102 89.5643 35.1971 89.325 35.9907C89.0939 36.7885 88.6367 37.4772 87.9536 38.0568C87.2704 38.6364 86.4139 39.0902 85.3841 39.418ZM82.8363 31.4154C81.9492 31.6978 81.2142 32.0718 80.6314 32.5375C80.0486 33.0032 79.6531 33.5527 79.4448 34.1861C79.2385 34.8257 79.2617 35.5426 79.5145 36.3366C79.7732 37.1493 80.1717 37.7569 80.7098 38.1596C81.2479 38.5622 81.8914 38.7809 82.6404 38.8157C83.3894 38.8506 84.2013 38.7287 85.076 38.4503C85.9259 38.1797 86.6452 37.8209 87.2339 37.3738C87.8227 36.9267 88.2253 36.3886 88.4417 35.7594C88.6644 35.1283 88.6454 34.4033 88.3847 33.5844C88.0114 32.4119 87.3372 31.6461 86.362 31.287C85.3887 30.9341 84.2135 30.9769 82.8363 31.4154ZM79.9784 52.3164L87.24 50.5332C87.459 50.4759 87.668 50.4244 87.8667 50.3787C88.0654 50.3331 88.2575 50.2903 88.4428 50.2502C88.6281 50.2102 88.8067 50.1731 88.9786 50.1387C89.157 50.1047 89.3321 50.0706 89.504 50.0362L89.5072 49.9875C89.3413 49.9309 89.1721 49.8741 88.9997 49.8171C88.8273 49.7601 88.6486 49.6994 88.4637 49.6351C88.2787 49.5707 88.0907 49.5029 87.8996 49.4316C87.7086 49.3603 87.5115 49.2821 87.3083 49.197L80.3674 46.4015L80.434 45.388L91.2244 43.0736L91.1559 44.1162L84.261 45.532C83.8574 45.6164 83.4972 45.6873 83.1802 45.7448C82.8633 45.8022 82.5762 45.8519 82.319 45.8937C82.0618 45.9355 81.818 45.9716 81.5876 46.0022L81.5844 46.0509C81.7443 46.1005 81.9104 46.1539 82.0828 46.2109C82.2617 46.2683 82.4534 46.3299 82.6579 46.3955C82.8623 46.4611 83.0792 46.5374 83.3083 46.6242C83.5375 46.7111 83.7857 46.8057 84.053 46.9081L90.7931 49.6317L90.729 50.6061L83.7155 52.3371C83.3774 52.4192 83.0529 52.4925 82.742 52.5569C82.4372 52.6282 82.1527 52.6878 81.8886 52.7356C81.624 52.79 81.3766 52.8325 81.1462 52.863L81.1424 52.9214C81.355 52.9615 81.5863 53.0159 81.8363 53.0845C82.0923 53.1601 82.3769 53.2473 82.6901 53.3462C83.0029 53.4516 83.3475 53.5689 83.7239 53.698L90.3785 55.9364L90.3131 56.9304L79.9098 53.3591L79.9784 52.3164ZM86.7419 66.8551C86.2328 67.9322 85.5594 68.6257 84.7218 68.9355C83.8841 69.2453 82.8619 69.115 81.6552 68.5448L75.3776 65.5779L75.7949 64.695L82.0195 67.6368C82.9731 68.0875 83.7765 68.2007 84.4297 67.9766C85.0829 67.7524 85.6056 67.2253 85.9978 66.3954C86.4958 65.3418 86.5679 64.3893 86.2141 63.538C85.8634 62.6954 85.0671 61.9806 83.8251 61.3937L78.5364 58.8942L78.9579 58.0024L88.5552 62.5382L88.2131 63.2622L86.4023 62.5685L86.3773 62.6214C86.6556 62.9618 86.8695 63.3473 87.0188 63.7779C87.1713 64.2172 87.2299 64.695 87.1947 65.2113C87.1655 65.7303 87.0145 66.2782 86.7419 66.8551ZM65.8395 80.0122C65.3181 79.3373 65.0503 78.6392 65.0362 77.918C65.026 77.2019 65.2225 76.5031 65.6256 75.8215C66.0327 75.1451 66.6046 74.5223 67.3414 73.9532C67.8 73.599 68.2352 73.2998 68.6472 73.0556C69.05 72.8103 69.4312 72.6063 69.7909 72.4436C70.1455 72.2849 70.4822 72.1564 70.8012 72.0581L71.4161 72.8542C70.8948 73.01 70.3256 73.2317 69.7086 73.5191C69.0903 73.8157 68.4695 74.2048 67.846 74.6863C67.2587 75.14 66.804 75.627 66.4819 76.1473C66.1547 76.6715 65.993 77.2077 65.9969 77.7559C66.0008 78.304 66.2057 78.8409 66.6116 79.3664C66.9698 79.8301 67.3731 80.1233 67.8215 80.2458C68.2687 80.3775 68.7929 80.3798 69.394 80.2528C69.9991 80.1309 70.7195 79.924 71.5553 79.6322C72.1424 79.4337 72.6943 79.2748 73.2108 79.1555C73.7263 79.0453 74.2075 79.0027 74.6545 79.0276C75.1055 79.0576 75.5305 79.1818 75.9294 79.4001C76.3272 79.6276 76.7012 79.968 77.0515 80.4214C77.533 81.0448 77.7798 81.6892 77.7919 82.3544C77.8028 83.0288 77.6213 83.6832 77.2475 84.3174C76.8724 84.9608 76.3449 85.5452 75.6648 86.0706C75.1238 86.4884 74.5713 86.8329 74.0074 87.104C73.4423 87.3842 72.8555 87.5989 72.2468 87.7482L71.9938 86.8454C72.5984 86.691 73.1632 86.485 73.6883 86.2276C74.2133 85.9701 74.6974 85.6702 75.1405 85.3279C75.6712 84.918 76.0835 84.472 76.3775 83.9899C76.6703 83.517 76.8164 83.0298 76.8157 82.5285C76.8151 82.0271 76.6298 81.5369 76.2596 81.0577C75.8776 80.5631 75.4584 80.2493 75.002 80.1165C74.5405 79.9876 74.026 79.9819 73.4586 80.0993C72.8861 80.2208 72.2428 80.405 71.5288 80.6522C70.6839 80.9429 69.9218 81.149 69.2424 81.2707C68.5671 81.3975 67.9508 81.3717 67.3935 81.1934C66.8311 81.0191 66.3131 80.6254 65.8395 80.0122ZM57.1062 79.6689C58.0918 79.2934 59.003 79.1797 59.8396 79.3278C60.6726 79.4843 61.4073 79.8767 62.0437 80.5051C62.6764 81.1419 63.1921 81.9835 63.5907 83.03C64.0056 84.119 64.1624 85.1251 64.0613 86.0484C63.9625 86.9778 63.6329 87.7861 63.0726 88.4733C62.5123 89.1605 61.7484 89.6883 60.7811 90.0568C60.3065 90.2376 59.8492 90.363 59.4092 90.4331C58.9691 90.5032 58.5558 90.5248 58.1693 90.4978L58.1064 89.5917C58.505 89.6141 58.911 89.5918 59.3244 89.5248C59.7379 89.4579 60.121 89.3573 60.4739 89.2229C61.2891 88.9123 61.9143 88.4686 62.3495 87.8918C62.7809 87.3234 63.0235 86.6528 63.0774 85.8798C63.1276 85.1153 62.9835 84.2889 62.6451 83.4006C62.3276 82.5671 61.9183 81.8766 61.4171 81.329C60.9182 80.7875 60.3334 80.432 59.6628 80.2625C58.9944 80.0991 58.2465 80.175 57.4191 80.4902C56.9385 80.6733 56.5007 80.8958 56.1058 81.1577C55.7049 81.4219 55.3539 81.6984 55.0529 81.9872L54.733 81.1476C54.9999 80.8788 55.3288 80.6176 55.72 80.3641C56.1027 80.1069 56.5648 79.8751 57.1062 79.6689ZM49.2554 92.5119C48.9774 92.5446 48.7136 92.5593 48.4641 92.5559C48.2146 92.5525 47.9797 92.5343 47.7595 92.5012L47.8084 91.581C48.0287 91.614 48.2502 91.6305 48.4731 91.6305C48.6967 91.637 48.9346 91.6253 49.1868 91.5956C49.6847 91.537 50.1198 91.3907 50.4921 91.1567C50.8579 90.9235 51.1561 90.6164 51.3865 90.2352C51.617 89.8541 51.7744 89.4095 51.8587 88.9013C51.9431 88.3932 51.9495 87.8352 51.8779 87.2274L51.1926 81.4083L52.1818 81.2918L53.4235 91.8341L52.5797 91.9335L52.2485 89.9567L52.1904 89.9636C52.0767 90.3899 51.8934 90.7819 51.6405 91.1395C51.3819 91.5043 51.0539 91.8084 50.6565 92.0518C50.2591 92.2953 49.792 92.4487 49.2554 92.5119ZM34.9308 85.5516C35.0624 84.7419 35.2822 84.0191 35.5901 83.3832C35.897 82.7537 36.2856 82.2299 36.756 81.8117C37.2263 81.3935 37.7753 81.1002 38.4029 80.9319C39.0241 80.7625 39.7203 80.7405 40.4914 80.8659C41.224 80.985 41.8553 81.2196 42.3854 81.5697C42.9145 81.9262 43.339 82.3778 43.659 82.9245C43.9726 83.4702 44.1784 84.0907 44.2764 84.7861C44.3734 85.4878 44.3555 86.2467 44.2227 87.0628C44.0398 88.1874 43.6962 89.1242 43.1918 89.8732C42.6799 90.6277 42.0388 91.1632 41.2683 91.4798C40.4904 91.8018 39.6098 91.8829 38.6267 91.723C37.6114 91.5578 36.804 91.1891 36.2045 90.6167C35.5975 90.0496 35.1901 89.3304 34.9823 88.4589C34.7744 87.5874 34.7573 86.6183 34.9308 85.5516ZM43.2203 86.8998C43.3697 85.9809 43.3686 85.1562 43.217 84.4258C43.0654 83.6953 42.7542 83.094 42.2836 82.6217C41.8065 82.1483 41.1567 81.8448 40.3342 81.711C39.4924 81.5741 38.7702 81.6545 38.1677 81.9523C37.5652 82.25 37.079 82.725 36.7091 83.3772C36.3392 84.0294 36.0806 84.8085 35.9332 85.7146C35.79 86.595 35.7846 87.3988 35.917 88.1261C36.0493 88.8534 36.3471 89.4559 36.8103 89.9336C37.2724 90.4177 37.9276 90.7287 38.7758 90.8667C39.9903 91.0642 40.9783 90.8093 41.7397 90.1021C42.4947 89.3938 42.9883 88.3264 43.2203 86.8998ZM32.1317 79.0594L33.0517 79.4414L27.2246 93.4751L26.3047 93.0931L32.1317 79.0594ZM28.1096 77.0012L28.9722 77.4993L21.3742 90.6586L20.5116 90.1606L28.1096 77.0012ZM19.1862 68.3932C20.0814 69.5362 20.4051 70.6885 20.1572 71.8502C19.9001 73.0108 19.0822 74.131 17.7035 75.2108C16.2581 76.3429 14.9092 76.8907 13.6569 76.8544C12.4045 76.8181 11.3368 76.2361 10.4536 75.1085C10.0763 74.6267 9.82345 74.1508 9.6951 73.6807C9.56274 73.2055 9.53036 72.7471 9.59796 72.3055C9.65643 71.8628 9.79493 71.4483 10.0135 71.0622L9.96529 71.0007C9.70969 71.2339 9.42958 71.4781 9.12496 71.7332C8.82033 71.9884 8.53731 72.2183 8.27591 72.423L4.8777 75.0845L4.26953 74.308L16.2325 64.9386L16.7262 65.569L15.2745 66.8672L15.3107 66.9134C15.7266 66.8109 16.159 66.7823 16.608 66.8276C17.0529 66.8678 17.4948 67.0096 17.9336 67.2531C18.3672 67.5006 18.7848 67.8806 19.1862 68.3932ZM18.4434 68.8385C17.6727 67.8544 16.8197 67.3936 15.8846 67.4562C14.9444 67.5227 13.9054 68.0016 12.7675 68.8928L12.6445 68.9891C11.4656 69.9124 10.7261 70.8265 10.426 71.7314C10.1207 72.6403 10.3354 73.5638 11.07 74.5018C11.7966 75.4295 12.6755 75.8865 13.7067 75.8727C14.7338 75.8538 15.8625 75.3627 17.0926 74.3992C18.251 73.492 18.9514 72.5754 19.1938 71.6496C19.4322 70.7186 19.182 69.7816 18.4434 68.8385ZM6.75287 55.2846C7.53003 55.022 8.27163 54.878 8.9777 54.8524C9.67759 54.829 10.3224 54.9272 10.9121 55.1472C11.5018 55.3671 12.0179 55.715 12.4605 56.1909C12.9009 56.6605 13.2461 57.2654 13.4962 58.0056C13.7338 58.7087 13.822 59.3764 13.7607 60.0087C13.6933 60.6431 13.4929 61.2297 13.1595 61.7684C12.824 62.3009 12.372 62.7732 11.8034 63.1852C11.2286 63.5993 10.5496 63.9387 9.76627 64.2033C8.68689 64.568 7.69819 64.7028 6.80017 64.6076C5.8939 64.5084 5.12056 64.1924 4.48016 63.6598C3.83151 63.123 3.34777 62.3828 3.02892 61.4391C2.69966 60.4646 2.64766 59.5785 2.87293 58.7808C3.08995 57.979 3.5349 57.2824 4.20777 56.6908C4.88064 56.0993 5.72901 55.6305 6.75287 55.2846ZM9.44117 63.2411C10.3232 62.9431 11.0514 62.5562 11.626 62.0803C12.2005 61.6045 12.5863 61.0481 12.7834 60.4111C12.9784 59.7679 12.9426 59.0516 12.6758 58.2621C12.4028 57.4542 11.9938 56.8536 11.4486 56.4606C10.9035 56.0675 10.2562 55.8601 9.50671 55.8385C8.75722 55.8168 7.94764 55.9529 7.07797 56.2468C6.23297 56.5323 5.52009 56.9037 4.93931 57.3611C4.35854 57.8184 3.96548 58.3636 3.76012 58.9964C3.5486 59.6314 3.58038 60.356 3.85546 61.1701C4.24932 62.3359 4.93695 63.0897 5.91833 63.4315C6.89762 63.7673 8.0719 63.7038 9.44117 63.2411ZM11.9266 42.2909L4.6982 44.204C4.48018 44.2653 4.27223 44.3205 4.07434 44.3697C3.87646 44.419 3.68523 44.4652 3.50066 44.5085C3.31609 44.5519 3.13818 44.5923 2.96693 44.6297C2.78917 44.6668 2.61467 44.7041 2.44341 44.7416L2.44108 44.7903C2.60799 44.8439 2.77814 44.8977 2.95155 44.9516C3.12495 45.0055 3.30471 45.063 3.49081 45.124C3.67691 45.185 3.86611 45.2495 4.0584 45.3173C4.2507 45.3852 4.44918 45.4598 4.65386 45.5413L11.6438 48.2119L11.5953 49.2264L0.848158 51.7339L0.898021 50.6902L7.76641 49.151C8.16837 49.0594 8.52729 48.982 8.84316 48.9189C9.15903 48.8558 9.44518 48.801 9.70159 48.7546C9.958 48.7082 10.2011 48.6677 10.4309 48.633L10.4332 48.5842C10.2725 48.5375 10.1054 48.4871 9.93203 48.4332C9.75212 48.379 9.55936 48.3209 9.35375 48.2589C9.14814 48.197 8.92999 48.1246 8.6993 48.0419C8.46861 47.9592 8.21872 47.869 7.94963 47.7714L1.16178 45.1692L1.20838 44.1937L8.18969 42.3372C8.52631 42.249 8.84947 42.17 9.15915 42.1C9.46263 42.0233 9.74599 41.9586 10.0092 41.906C10.2728 41.8469 10.5194 41.8 10.7492 41.7654L10.752 41.7068C10.5386 41.6706 10.3064 41.6204 10.0553 41.5562C9.79793 41.4853 9.51181 41.4032 9.19689 41.3099C8.88228 41.2102 8.53563 41.0991 8.15692 40.9767L1.46329 38.858L1.51082 37.863L11.9765 41.2472L11.9266 42.2909ZM4.90513 27.8727C5.39497 26.7866 6.05592 26.0813 6.88797 25.7566C7.72002 25.432 8.74435 25.5441 9.96097 26.0928L16.2903 28.9475L15.8888 29.8377L9.61287 27.0071C8.65145 26.5734 7.84618 26.4745 7.19706 26.7102C6.54795 26.946 6.03468 27.4822 5.65726 28.319C5.17813 29.3813 5.12299 30.3349 5.49184 31.1798C5.85744 32.016 6.66634 32.7165 7.91857 33.2813L13.2509 35.6864L12.8454 36.5855L3.16884 32.2211L3.49808 31.4911L5.32091 32.1526L5.345 32.0991C5.06061 31.7638 4.83993 31.3821 4.68297 30.9542C4.52275 30.5177 4.45562 30.0411 4.4816 29.5243C4.50163 29.0048 4.64281 28.4543 4.90513 27.8727Z" fill="white"/>
</svg>
